# xmcd CD database file
#
# Track frame offsets:
#	150
#	23187
#	41860
#	56062
#	70377
#	82837
#	98722
#	114804
#	137000
#	151262
#	171675
#	193852
#	214912
#	252542
#
# Disc length: 3561 seconds
#
# Revision: 0
# Processed by: cddbd v1.5.2PL0 Copyright (c) Steve Scherf et al.
# Submitted via: CDex 1.70beta2
#
DISCID=ca0de70e
DTITLE=Pablo Carcamo - Caribbean Tropical Dance Party
DYEAR=1995
DGENRE=Salsa
TTITLE0=Remando
TTITLE1=Los Zapatos de mi Abuelo
TTITLE2=Cocos
TTITLE3=Dime
TTITLE4=Dale Negro
TTITLE5=Fantasia Caribena
TTITLE6=Porqué de Empenas
TTITLE7=Triángulo de las Bermudas
TTITLE8=La Marimba
TTITLE9=La Playa de las Ninas
TTITLE10=Riendose con el sol
TTITLE11=Tú cumpleanos
TTITLE12=Los perros
TTITLE13=Trinidad
EXTD=YEAR: 1995
EXTT0=
EXTT1=
EXTT2=
EXTT3=
EXTT4=
EXTT5=
EXTT6=
EXTT7=
EXTT8=
EXTT9=
EXTT10=
EXTT11=
EXTT12=
EXTT13=
PLAYORDER=
